<svg version="1.2" xmlns="http://www.w3.org/2000/svg" viewBox="0 0 428 428" width="428" height="428">
	<title>Character (Rifle)-svg</title>
	<style>
		.s0 { fill: #f1f1f1;stroke: #b4b2b2;stroke-miterlimit:100;stroke-width: 20 } 
		.s1 { fill: #e9c8bc;stroke: #d9b6aa;stroke-miterlimit:100;stroke-width: 20 } 
		.s2 { fill: #000000 } 
		.s3 { fill: none;stroke: #000000;stroke-miterlimit:100;stroke-width: 1.9 } 
		.s4 { fill: #5bb2ce;stroke: #45889d;stroke-miterlimit:100;stroke-width: 2.5 } 
	</style>
	<path id="Shape 1" class="s0" d="m39.4 138.9l347.8-3.4c16.6-0.1 30.2 13.2 30.3 29.7l0.9 93.8c0.2 16.6-13.1 30.2-29.6 30.3l-347.9 3.2c-16.6 0.2-30.2-13.1-30.3-29.6l-0.9-93.8c-0.1-16.6 13.2-30.1 29.7-30.2z"/>
	<path id="Layer 1" class="s1" d="m214 320.5c-59 0-106.8-47.7-106.8-106.7 0-59.1 47.8-106.8 106.8-106.8 59 0 106.8 47.7 106.8 106.8 0 59-47.8 106.7-106.8 106.7z"/>
	<path id="Shape 6" class="s2" d="m246 174c-6.6 0-12-10.3-12-23 0-12.7 5.4-23 12-23 6.6 0 12 10.3 12 23 0 12.7-5.4 23-12 23z"/>
	<path id="Shape 6 copy" class="s2" d="m181 174c-6.6 0-12-10.3-12-23 0-12.7 5.4-23 12-23 6.6 0 12 10.3 12 23 0 12.7-5.4 23-12 23z"/>
	<path id="Shape 8" class="s3" d="m203 129h19"/>
	<path id="Shape 9" class="s3" d="m205.8 122.2c0 0 0.8 2.5 7.4 2.4 6.5-0.1 6.1-2 6.1-2"/>
	<path id="Shape 7" class="s4" d="m166 120c-3.6 0.9-7.5 6.7-7 10 0.7 4.4 40.2 1.7 44-2 4.4-4.2 3.9-10.2-3-11-7.8-0.9-20.5-0.3-34 3zm0 0c-3.6 0.9-7.5 6.7-7 10 0.7 4.4 40.2 1.7 44-2 4.4-4.2 3.9-10.2-3-11-7.8-0.9-20.5-0.3-34 3zm0 0c-3.6 0.9-7.5 6.7-7 10 0.7 4.4 40.2 1.7 44-2 4.4-4.2 3.9-10.2-3-11-7.8-0.9-20.5-0.3-34 3z"/>
	<path id="Shape 7 copy" class="s4" d="m259.8 121c3.5 0.9 7.5 6.7 7 10-0.8 4.4-40.2 1.7-44-2-4.4-4.2-3.9-10.2 3-11 7.7-0.9 20.5-0.3 34 3zm0 0c3.5 0.9 7.5 6.7 7 10-0.8 4.4-40.2 1.7-44-2-4.4-4.2-3.9-10.2 3-11 7.7-0.9 20.5-0.3 34 3zm0 0c3.5 0.9 7.5 6.7 7 10-0.8 4.4-40.2 1.7-44-2-4.4-4.2-3.9-10.2 3-11 7.7-0.9 20.5-0.3 34 3z"/>
</svg>