<svg version="1.2" xmlns="http://www.w3.org/2000/svg" viewBox="0 0 525 420" width="525" height="420">
	<title>Blood</title>
	<style>
		.s0 { fill: #b70000;stroke: #8e0000;stroke-miterlimit:100;stroke-width: 14 } 
	</style>
	<path id="Layer 1" class="s0" d="m175 61c57.7 17.7 15.3 104.4 76 140 46.3 27.2 77-20.2 121 11.1 33.6 23.9 47.9 45 46.5 80.3-2.6 67.2-63.6 89.2-140.5 107.6-101.8 24.4-169.2 9.6-225-66-54.2-73.4-62.9-157.3-0.7-227.7 35.8-40.4 75.4-59.8 122.7-45.3z"/>
	<path id="Layer 2" class="s0" d="m273 60c-24.6 10.4-26.9 47.5-15 76 14.8 35.3 45 47.7 86 43 34.5-4 63.1-24 66-47 3.8-30.3-40.3-38.7-89-59-22.7-9.4-32.2-19.7-48-13z"/>
	<path id="Shape 1" class="s0" d="m343 13c-6.7 5.3-9.9 14.8-6 23 3.9 8.4 12.8 11.8 22 10 11.7-2.2 20.4-16.8 18-25-2.8-9.3-24.1-15.8-34-8z"/>
	<path id="Shape 2" class="s0" d="m397 66c-6.7 4.7-10.2 13.2-7 17 17.8 21.1 63.9 22.6 101-3 17.2-11.9 27.8-29.5 26-39-4.6-24.9-75.5-6.2-120 25z"/>
</svg>