<svg version="1.2" xmlns="http://www.w3.org/2000/svg" viewBox="0 0 840 174" width="840" height="174">
	<title>Reload Bar</title>
	<style>
		.s0 { fill: #2a2a2a;stroke: #161616;stroke-miterlimit:100;stroke-width: 14 } 
	</style>
	<g id="Bullet 1">
		<path id="Layer 1" class="s0" d="m61 72v95h-54v-95z"/>
		<path id="Shape 1" fill-rule="evenodd" class="s0" d="m34 6.7c14.9 0 27 21 27 47h-54c0-26 12.1-47 27-47z"/>
	</g>
	<g id="Bullet 1 copy">
		<path id="Layer 1" class="s0" d="m147 72v95h-54v-95z"/>
		<path id="Shape 1" fill-rule="evenodd" class="s0" d="m120 6.7c14.9 0 27 21 27 47h-54c0-26 12.1-47 27-47z"/>
		<path id="Layer 1 copy 2" class="s0" d="m233 72v95h-54v-95z"/>
		<path id="Shape 1 copy 2" fill-rule="evenodd" class="s0" d="m206 6.7c14.9 0 27 21 27 47h-54c0-26 12.1-47 27-47z"/>
		<path id="Shape 1 copy" fill-rule="evenodd" class="s0" d="m205 6.7c14.9 0 27 21 27 47h-54c0-26 12.1-47 27-47z"/>
		<path id="Layer 1 copy 3" class="s0" d="m318 72v95h-54v-95z"/>
		<path id="Shape 1 copy 3" fill-rule="evenodd" class="s0" d="m291 6.7c14.9 0 27 21 27 47h-54c0-26 12.1-47 27-47z"/>
		<path id="Layer 1 copy 4" class="s0" d="m404 72v95h-54v-95z"/>
		<path id="Shape 1 copy 4" fill-rule="evenodd" class="s0" d="m377 6.7c14.9 0 27 21 27 47h-54c0-26 12.1-47 27-47z"/>
		<path id="Layer 1 copy 5" class="s0" d="m490 72v95h-54v-95z"/>
		<path id="Shape 1 copy 6" fill-rule="evenodd" class="s0" d="m463 6.7c14.9 0 27 21 27 47h-54c0-26 12.1-47 27-47z"/>
		<path id="Layer 1 copy 6" class="s0" d="m576 72v95h-54v-95z"/>
		<path id="Shape 1 copy 7" fill-rule="evenodd" class="s0" d="m549 6.7c14.9 0 27 21 27 47h-54c0-26 12.1-47 27-47z"/>
		<path id="Shape 1 copy 8" fill-rule="evenodd" class="s0" d="m548 6.7c14.9 0 27 21 27 47h-54c0-26 12.1-47 27-47z"/>
		<path id="Layer 1 copy 7" class="s0" d="m661 72v95h-54v-95z"/>
		<path id="Shape 1 copy 9" fill-rule="evenodd" class="s0" d="m634 6.7c14.9 0 27 21 27 47h-54c0-26 12.1-47 27-47z"/>
		<path id="Layer 1 copy 8" class="s0" d="m747 72v95h-54v-95z"/>
		<path id="Shape 1 copy 10" fill-rule="evenodd" class="s0" d="m720 6.7c14.9 0 27 21 27 47h-54c0-26 12.1-47 27-47z"/>
		<path id="Layer 1 copy 10" class="s0" d="m833 72v95h-54v-95z"/>
		<path id="Shape 1 copy 12" fill-rule="evenodd" class="s0" d="m806 6.7c14.9 0 27 21 27 47h-54c0-26 12.1-47 27-47z"/>
	</g>
	<g id="Bullet 1 copy 2">
	</g>
</svg>