<svg version="1.2" xmlns="http://www.w3.org/2000/svg" viewBox="0 0 900 900" width="900" height="900">
	<title>CharacterSprite</title>
	<style>
		.s0 { fill: #f1f1f1;stroke: #b4b2b2;stroke-miterlimit:100;stroke-width: 20 } 
		.s1 { fill: #e9c8bc;stroke: #d9b6aa;stroke-miterlimit:100;stroke-width: 20 } 
		.s2 { fill: #000000 } 
	</style>
	<path id="Shape 5" class="s0" d="m562 523h62c8.3 0 15 6.7 15 15v245c0 8.3-6.7 15-15 15h-62c-8.3 0-15-6.7-15-15v-245c0-8.3 6.7-15 15-15z"/>
	<path id="Shape 1" class="s0" d="m386.2 501.2l213 275c10.1 13.1 7.7 32-5.4 42.1l-74.1 57.4c-13.1 10.2-32 7.8-42.1-5.3l-212.9-275.1c-10.2-13.1-7.8-32 5.3-42.1l74.2-57.4c13.1-10.1 31.9-7.7 42 5.4z"/>
	<path id="Layer 1" class="s1" d="m433 792.5c-59 0-106.8-47.7-106.8-106.7 0-59.1 47.8-106.8 106.8-106.8 59 0 106.8 47.7 106.8 106.8 0 59-47.8 106.7-106.8 106.7z"/>
	<path id="Shape 2" class="s2" d="m465 646c-6.6 0-12-10.3-12-23 0-12.7 5.4-23 12-23 6.6 0 12 10.3 12 23 0 12.7-5.4 23-12 23zm0 0c-6.6 0-12-10.3-12-23 0-12.7 5.4-23 12-23 6.6 0 12 10.3 12 23 0 12.7-5.4 23-12 23zm-65 0c-6.6 0-12-10.3-12-23 0-12.7 5.4-23 12-23 6.6 0 12 10.3 12 23 0 12.7-5.4 23-12 23zm0 0c-6.6 0-12-10.3-12-23 0-12.7 5.4-23 12-23 6.6 0 12 10.3 12 23 0 12.7-5.4 23-12 23z"/>
	<path id="Shape 4" class="s1" d="m577 466.6c10.6 1.1 13.5 12.9 13.5 12.9l42.1 2.2c0 0 7.1-0.9 6.1 14.9v36.6h-91.7v-36.6c0-16.5 13.5-31.7 30-30z"/>
</svg>