<svg version="1.2" xmlns="http://www.w3.org/2000/svg" viewBox="0 0 428 234" width="428" height="234">
	<title>CharacterSprite</title>
	<style>
		.s0 { fill: #f1f1f1;stroke: #b4b2b2;stroke-miterlimit:100;stroke-width: 20 } 
		.s1 { fill: #e9c8bc;stroke: #d9b6aa;stroke-miterlimit:100;stroke-width: 20 } 
		.s2 { fill: #000000 } 
	</style>
	<path id="Shape 1" class="s0" d="m40 39.9h347.9c16.5 0 30 13.4 30 30v93.7c0 16.6-13.5 30-30 30h-347.9c-16.6 0-30-13.4-30-30v-93.7c0-16.6 13.4-30 30-30z"/>
	<path id="Layer 1" class="s1" d="m215 223.5c-59 0-106.8-47.7-106.8-106.7 0-59.1 47.8-106.8 106.8-106.8 59 0 106.8 47.7 106.8 106.8 0 59-47.8 106.7-106.8 106.7z"/>
	<path id="Shape 2" class="s2" d="m247 77c-6.6 0-12-10.3-12-23 0-12.7 5.4-23 12-23 6.6 0 12 10.3 12 23 0 12.7-5.4 23-12 23zm0 0c-6.6 0-12-10.3-12-23 0-12.7 5.4-23 12-23 6.6 0 12 10.3 12 23 0 12.7-5.4 23-12 23z"/>
	<path id="Shape 2 copy" class="s2" d="m182 77c-6.6 0-12-10.3-12-23 0-12.7 5.4-23 12-23 6.6 0 12 10.3 12 23 0 12.7-5.4 23-12 23zm0 0c-6.6 0-12-10.3-12-23 0-12.7 5.4-23 12-23 6.6 0 12 10.3 12 23 0 12.7-5.4 23-12 23z"/>
</svg>