<svg version="1.2" xmlns="http://www.w3.org/2000/svg" viewBox="0 0 400 435" width="400" height="435">
	<title>Character (Rifle)-svg</title>
	<style>
		.s0 { fill: #f1f1f1;stroke: #b4b2b2;stroke-miterlimit:100;stroke-width: 20 } 
		.s1 { fill: #e9c8bc;stroke: #d9b6aa;stroke-miterlimit:100;stroke-width: 20 } 
		.s2 { fill: #000000 } 
		.s3 { fill: none;stroke: #000000;stroke-miterlimit:100;stroke-width: 1.9 } 
		.s4 { fill: #5bb2ce;stroke: #45889d;stroke-miterlimit:100;stroke-width: 2.5 } 
	</style>
	<path id="Shape 5" class="s0" d="m313 66h62c8.3 0 15 6.7 15 15v245c0 8.3-6.7 15-15 15h-62c-8.3 0-15-6.7-15-15v-245c0-8.3 6.7-15 15-15z"/>
	<path id="Shape 1" class="s0" d="m137.2 44.2l213 275c10.1 13.1 7.7 32-5.4 42.1l-74.1 57.4c-13.1 10.2-32 7.8-42.1-5.3l-212.9-275.1c-10.2-13.1-7.8-32 5.3-42.1l74.2-57.4c13.1-10.1 31.9-7.7 42 5.4z"/>
	<path id="Layer 1" class="s1" d="m184 335.5c-59 0-106.8-47.7-106.8-106.7 0-59.1 47.8-106.8 106.8-106.8 59 0 106.8 47.7 106.8 106.8 0 59-47.8 106.7-106.8 106.7z"/>
	<path id="Shape 6" class="s2" d="m216 189c-6.6 0-12-10.3-12-23 0-12.7 5.4-23 12-23 6.6 0 12 10.3 12 23 0 12.7-5.4 23-12 23z"/>
	<path id="Shape 6 copy" class="s2" d="m151 189c-6.6 0-12-10.3-12-23 0-12.7 5.4-23 12-23 6.6 0 12 10.3 12 23 0 12.7-5.4 23-12 23z"/>
	<path id="Shape 8" class="s3" d="m173 144h19"/>
	<path id="Shape 9" class="s3" d="m175.8 137.2c0 0 0.8 2.5 7.4 2.4 6.5-0.1 6.1-2 6.1-2"/>
	<path id="Shape 7" class="s4" d="m136 135c-3.6 0.9-7.5 6.7-7 10 0.7 4.4 40.2 1.7 44-2 4.4-4.2 3.9-10.2-3-11-7.8-0.9-20.5-0.3-34 3zm0 0c-3.6 0.9-7.5 6.7-7 10 0.7 4.4 40.2 1.7 44-2 4.4-4.2 3.9-10.2-3-11-7.8-0.9-20.5-0.3-34 3zm0 0c-3.6 0.9-7.5 6.7-7 10 0.7 4.4 40.2 1.7 44-2 4.4-4.2 3.9-10.2-3-11-7.8-0.9-20.5-0.3-34 3z"/>
	<path id="Shape 7 copy" class="s4" d="m229.8 136c3.5 0.9 7.5 6.7 7 10-0.8 4.4-40.2 1.7-44-2-4.4-4.2-3.9-10.2 3-11 7.7-0.9 20.5-0.3 34 3zm0 0c3.5 0.9 7.5 6.7 7 10-0.8 4.4-40.2 1.7-44-2-4.4-4.2-3.9-10.2 3-11 7.7-0.9 20.5-0.3 34 3zm0 0c3.5 0.9 7.5 6.7 7 10-0.8 4.4-40.2 1.7-44-2-4.4-4.2-3.9-10.2 3-11 7.7-0.9 20.5-0.3 34 3z"/>
	<path id="Shape 4" class="s1" d="m328 9.6c10.6 1.1 13.5 12.9 13.5 12.9l42.1 2.2c0 0 7.1-0.9 6.1 14.9v36.6h-91.7v-36.6c0-16.5 13.5-31.7 30-30z"/>
</svg>