<svg version="1.2" xmlns="http://www.w3.org/2000/svg" viewBox="0 0 800 800" width="800" height="800">
	<title>playerPistol-svg</title>
	<style>
		.s0 { fill: #f1f1f1;stroke: #b4b2b2;stroke-miterlimit:100;stroke-width: 20 } 
		.s1 { fill: #e9c8bc;stroke: #d9b6aa;stroke-miterlimit:100;stroke-width: 20 } 
		.s2 { fill: #000000 } 
		.s3 { fill: none;stroke: #000000;stroke-miterlimit:100;stroke-width: 1.9 } 
		.s4 { fill: #5bb2ce;stroke: #45889d;stroke-miterlimit:100;stroke-width: 2.5 } 
	</style>
	<path id="Shape 3" class="s0" d="m488 50h60.7c8.3 0 15 6.7 15 15v254.5c0 8.2-6.7 15-15 15h-60.7c-8.3 0-15-6.8-15-15v-254.5c0-8.3 6.7-15 15-15z"/>
	<path id="Shape 1" class="s0" d="m227.5 481.1l225.9-264.5c10.8-12.6 29.7-14.1 42.3-3.3l71.3 60.9c12.6 10.7 14.1 29.6 3.3 42.2l-225.9 264.5c-10.7 12.6-29.7 14.1-42.3 3.4l-71.3-60.9c-12.6-10.8-14-29.7-3.3-42.3z"/>
	<path id="Layer 1" class="s1" d="m400 505.5c-59 0-106.8-47.7-106.8-106.7 0-59.1 47.8-106.8 106.8-106.8 59 0 106.8 47.7 106.8 106.8 0 59-47.8 106.7-106.8 106.7z"/>
	<path id="Shape 4" class="s1" d="m503 33.6c10.6 1.1 13.5 12.9 13.5 12.9l42.1 2.2c0 0 7.1-0.9 6.1 14.9v36.6h-91.7v-36.6c0-16.5 13.5-31.7 30-30z"/>
	<path id="Shape 6" class="s2" d="m432 359c-6.6 0-12-10.3-12-23 0-12.7 5.4-23 12-23 6.6 0 12 10.3 12 23 0 12.7-5.4 23-12 23z"/>
	<path id="Shape 6 copy" class="s2" d="m367 359c-6.6 0-12-10.3-12-23 0-12.7 5.4-23 12-23 6.6 0 12 10.3 12 23 0 12.7-5.4 23-12 23z"/>
	<g id="Folder 1">
		<path id="Shape 8" class="s3" d="m389 314h19"/>
		<path id="Shape 9" class="s3" d="m391.8 307.2c0 0 0.8 2.5 7.4 2.4 6.5-0.1 6.1-2 6.1-2"/>
		<path id="Shape 7" class="s4" d="m352 305c-3.6 0.9-7.5 6.7-7 10 0.7 4.4 40.2 1.7 44-2 4.4-4.2 3.9-10.2-3-11-7.8-0.9-20.5-0.3-34 3zm0 0c-3.6 0.9-7.5 6.7-7 10 0.7 4.4 40.2 1.7 44-2 4.4-4.2 3.9-10.2-3-11-7.8-0.9-20.5-0.3-34 3zm0 0c-3.6 0.9-7.5 6.7-7 10 0.7 4.4 40.2 1.7 44-2 4.4-4.2 3.9-10.2-3-11-7.8-0.9-20.5-0.3-34 3z"/>
		<path id="Shape 7 copy" class="s4" d="m445.8 306c3.5 0.9 7.5 6.7 7 10-0.8 4.4-40.2 1.7-44-2-4.4-4.2-3.9-10.2 3-11 7.7-0.9 20.5-0.3 34 3zm0 0c3.5 0.9 7.5 6.7 7 10-0.8 4.4-40.2 1.7-44-2-4.4-4.2-3.9-10.2 3-11 7.7-0.9 20.5-0.3 34 3zm0 0c3.5 0.9 7.5 6.7 7 10-0.8 4.4-40.2 1.7-44-2-4.4-4.2-3.9-10.2 3-11 7.7-0.9 20.5-0.3 34 3z"/>
	</g>
</svg>