<svg version="1.2" xmlns="http://www.w3.org/2000/svg" viewBox="0 0 800 509" width="800" height="509">
	<title>Colt M1911</title>
	<style>
		.s0 { fill: #777676 } 
		.s1 { fill: #372002 } 
		.s2 { fill: #484848 } 
	</style>
	<path id="Layer 2" fill-rule="evenodd" class="s0" d="m680.7 17.4l11.3 13.8c-0.3 6.6 33.4-4.8 32.9-5.6l12.2 4.9-20.1 12.5-21.1 20.8c-0.4-0.7-3.3 20.8 5.6 33.6 8.4 12 64.7 27.8 65.3 28.7l-0.3 14.4-29.6 13.8-29.8 13.5-13.2 34.1 32.5 73.2-9.1 3.6 82.7 171.3-13.2 5.8-0.7 23.1-9.9 1.4-7.3-20.1-73.6 11.4c0 0 9.3 30.7-13.5 36.2-26 6.2-27.8-31.8-27.8-31.8l-69 9.1-58.4-213c0 0 5.1-2.4-28.2-26.2 0 0-111.9 6.2-141.2-22.3l-9.4-15.3c0 0-0.2-22.4-9.1-48.2-2.1-6-27.6-19-27.6-19l-300.3-8.7c0 0-20.1-103.4-5.5-115.5l5.5-12.2 11.6 0.5c3.7-2.4 10.5-5.1 18.1-5.2 11.7-0.2 16.3 4.6 16.3 4.6l612.8 1.6c-0.3 0 10.5 11.2 11.1 11.2zm44.2 8.2h-0.1q0.1 0 0.1 0zm-298.8 206.1c0 0 3.8-3.6 16.3-18.3 5.9-15.9 5.5-25.3 5.5-25.3 0 0 2-5.7-3-17.3-8.9-14-14.6-20.8-14.6-20.8l-31.5-0.1c0 0-22.3 0.9-33.7 11.7-11.3 10.7-11.7 31.4-9.9 36 14.9 38.1 70.9 34.1 70.9 34.1zm239 256.3c0 0 1.4 11.2 12.4 10.4 9.8-0.9 9.4-11.8 9.4-11.8l-0.7-14.5-22.4 2.2z"/>
	<path id="Shape 1" class="s1" d="m516.6 124l121.3 347.6 115.8-17.7 19.1-30-139-305.3c0 0-21.2-18.4-62.7-19.1-38.4-0.6-54.5 24.5-54.5 24.5z"/>
	<path id="Shape 2" class="s0" d="m587.5 152.7c-6.1 0-11-4.9-11-10.9 0-6.1 4.9-11 11-11 6 0 10.9 4.9 10.9 11 0 6-4.9 10.9-10.9 10.9z"/>
	<path id="Shape 2 copy" class="s0" d="m698.9 427.3c-6.6 0-12-5.3-12-11.9 0-6.6 5.4-12 12-12 6.6 0 11.9 5.4 11.9 12 0 6.6-5.3 11.9-11.9 11.9z"/>
	<path id="Shape 3" class="s2" d="m669.9 5.2l23.5 27.9 1.7 45 1.4 9.1-564.4-2.5-5.7-6.6-123.6 0.8-2.8-34.7 1.9-20.9 6.3-19.2z"/>
	<path id="Shape 4" class="s2" d="m426.6 231.7c0 0 12.2-9.2 20.5-35.4 3.9-12.6-4.1-30-4.1-30l-12.3-16.4 28.6-1.3c0 0 12.5 4 20.5 17.7 6 10.3 5.4 22.6 1.5 32.9-4.9 13.1 2 1-15.2 23-3.6 4.7-39.5 9.5-39.5 9.5z"/>
</svg>