<svg version="1.2" xmlns="http://www.w3.org/2000/svg" viewBox="0 0 431 431" width="431" height="431">
	<title>Enemy Sprite</title>
	<style>
		.s0 { fill: #600000;stroke: #350000;stroke-miterlimit:100;stroke-width: 20 } 
		.s1 { fill: #340000 } 
	</style>
	<path id="Shape 1" class="s0" d="m41 137.9h347.9c16.5 0 30 13.4 30 30v93.7c0 16.6-13.5 30-30 30h-347.9c-16.6 0-30-13.4-30-30v-93.7c0-16.6 13.4-30 30-30z"/>
	<path id="Layer 1" class="s0" d="m216 321.5c-59 0-106.8-47.7-106.8-106.7 0-59.1 47.8-106.8 106.8-106.8 59 0 106.8 47.7 106.8 106.8 0 59-47.8 106.7-106.8 106.7z"/>
	<path id="Shape 2" class="s0" d="m271.9 134l34.1-24.4c17.5-10.2 42.9 9.3 15.3 31l-23.5 21.8"/>
	<path id="Shape 2 copy 2" class="s0" d="m310.1 190.8l41.9 2.7c19.9 3.1 27.2 34.4-7.8 33.7l-32 2"/>
	<path id="Shape 2 copy 3" class="s0" d="m121.6 234.7l-41.9-3c-19.9-3.3-27-34.6 8.1-33.7l32-1.7"/>
	<path id="Shape 3" class="s1" d="m207.1 153.3l-32.2 3.7c0 0 3.1-25.5 12.6-26.2 20.3-6.9 17.9 23.8 19.6 22.5zm0 0l-32.2 3.7c0 0 3.1-25.5 12.6-26.2 20.3-6.9 17.9 23.8 19.6 22.5z"/>
	<path id="Shape 3 copy" class="s1" d="m243.5 134.8m-12.6 21.2l32.2 5c0 0-3.1-34.1-12.6-35-20.3-9.3-18 31.8-19.6 30z"/>
	<path id="Shape 2 copy" class="s0" d="m155.4 138l-35.7-22.2c-18.1-9-42.2 12.2-13.3 32l25 20.2"/>
	<path id="Shape 2 copy 4" class="s0" d="m272 296.7l35.7 22.2c18 9 42.1-12.2 13.2-32l-24.9-20.2"/>
	<path id="Shape 2 copy 6" class="s0" d="m194.7 310l4.4 41.8c3.9 19.8 35.5 25.8 33.4-9.2l0.6-32.1"/>
	<path id="Shape 2 copy 7" class="s0" d="m236.6 119.2l-4.6-41.7c-4.1-19.8-35.7-25.6-33.3 9.4l-0.5 32"/>
	<path id="Shape 2 copy 5" class="s0" d="m160.3 295.1l-34.2 24.4c-17.5 10.2-42.9-9.4-15.3-31.1l23.6-21.7"/>
</svg>