<svg version="1.2" xmlns="http://www.w3.org/2000/svg" viewBox="0 0 800 241" width="800" height="241">
	<title>M4</title>
	<style>
		.s0 { fill: #323131 } 
		.s1 { fill: #222222 } 
	</style>
	<path id="Layer 2" fill-rule="evenodd" class="s0" d="m0 66.8l1.1-8.6h126.5l1.6 2.1 15.6 0.2 1.8-2.3 34.5-0.6 3.3-49c4.1-3.1 10.7-1.1 10.7-1.1l28.8 40 2.5-0.2 3.2-9.6 135.9-2.1 2.2 9.7 15-3.3 1.1 4.4 4.3 1v-8.6l101.4-2.1v-10.8l20.5-1.1 5.4-23.7 7.5-1.1-1.1 34.5 32.4 2.2 2.1 10.7 18.4 1.1 3.2 3.3h72.2l1.1-3.3 138-1.1 7.6-3.2 3.2 1.1-9.7 116.4h-4.3l-4.3-8.6-10.8 15.1-4.3-2.2 11.8-14-1-5.4-27-31.2-3.2 16.1-31.3-20.4-33.4-2.2-2.2-21.6h-32.3l1.1-4.3h-33.5l-9.7-5.4-39.2 0.9 0.4 15.3-18.3 6.5-4.3 16.1 46.3 65.8-45.2 15.1-5.4-4.3 5.4-5.4-16.2-29.1h-8.6l3.2-8.6-7.6-13h-56l-21.6 102.5-56.1-15.1 1.1-6.5 16.2-88.4-5.4-6.5 4.3-5.4v-21.5l-8.6-7.6h-4.3l-14-2.1c0 0-5.7 6.1-6.5 10.7l-134.8-4.3-3.2-8.6h-5.4v16.2l-7.5 1 1-15-1-4.4-1.1-7.5-19.3-0.9-0.1 2-2.8 0.3 0.6 11.5h-9.7v-3.2h-7.5v-6.5l4.3-1.1 1.1-2.1-32.5-0.2-2-1.7-16.9-0.3-1.3 2-84.3 0.2-2.1 3.2-39.9-1.1zm215.6-19.4l1.1-3.2-17.3-21.6-4.3 2.2v8.6l-6.4 2.2 1 11.8zm251.2 86.3l31.1-0.2c4.6-1.2 7.8-10.6 7.8-10.6 0.8-5.3-5.4-11.8-5.4-11.8h-5.4c0 0 2.1 9.9 1.1 11.8-1.2 2.2-6.6 10.8-6.6 8.7 0 0 4.2-8.2 3.3-10.9-0.3-1-6.4-10.7-6.4-10.7l-17.3-0.2c0 0-9.4 6.2-7.5 14.1 1.4 5.5 5.3 9.8 5.3 9.8zm-448.5-65.8l1.1-2.1h-8.6l-2.2 2.1zm195.2-8.6v-4.3h-18.4l-1 4.3z"/>
	<path id="Shape 1" class="s1" d="m401.1 127.2l58.2 9.7-20.5 103.5-56.1-16.1z"/>
</svg>