<svg version="1.2" xmlns="http://www.w3.org/2000/svg" viewBox="0 0 800 800" width="800" height="800">
	<title>CharacterSprite</title>
	<style>
		.s0 { fill: #f1f1f1;stroke: #b4b2b2;stroke-miterlimit:100;stroke-width: 20 } 
		.s1 { fill: #e9c8bc;stroke: #d9b6aa;stroke-miterlimit:100;stroke-width: 20 } 
		.s2 { fill: #000000 } 
	</style>
	<path id="Shape 3" class="s0" d="m485 165h60.7c8.3 0 15 6.7 15 15v254.5c0 8.2-6.7 15-15 15h-60.7c-8.3 0-15-6.8-15-15v-254.5c0-8.3 6.7-15 15-15z"/>
	<path id="Shape 1" class="s0" d="m224.5 596.1l225.9-264.5c10.8-12.6 29.7-14.1 42.3-3.3l71.3 60.9c12.6 10.7 14.1 29.6 3.3 42.2l-225.9 264.5c-10.7 12.6-29.7 14.1-42.3 3.4l-71.3-60.9c-12.6-10.8-14-29.7-3.3-42.3z"/>
	<path id="Layer 1" class="s1" d="m397 620.5c-59 0-106.8-47.7-106.8-106.7 0-59.1 47.8-106.8 106.8-106.8 59 0 106.8 47.7 106.8 106.8 0 59-47.8 106.7-106.8 106.7z"/>
	<path id="Shape 2" class="s2" d="m429 474c-6.6 0-12-10.3-12-23 0-12.7 5.4-23 12-23 6.6 0 12 10.3 12 23 0 12.7-5.4 23-12 23zm0 0c-6.6 0-12-10.3-12-23 0-12.7 5.4-23 12-23 6.6 0 12 10.3 12 23 0 12.7-5.4 23-12 23zm-65 0c-6.6 0-12-10.3-12-23 0-12.7 5.4-23 12-23 6.6 0 12 10.3 12 23 0 12.7-5.4 23-12 23zm0 0c-6.6 0-12-10.3-12-23 0-12.7 5.4-23 12-23 6.6 0 12 10.3 12 23 0 12.7-5.4 23-12 23z"/>
	<path id="Shape 4" class="s1" d="m500 148.6c10.6 1.1 13.5 12.9 13.5 12.9l42.1 2.2c0 0 7.1-0.9 6.1 14.9v36.6h-91.7v-36.6c0-16.5 13.5-31.7 30-30z"/>
</svg>